<svg width="49" height="60" viewBox="0 0 49 60" fill="none" xmlns="http://www.w3.org/2000/svg">
  <path fill-rule="evenodd" clip-rule="evenodd" d="M48.5 24.6667C48.5 37.0203 39.1667 47.1936 27.1667 48.5203V54H37.8333C39.3061 54 40.5 55.1939 40.5 56.6667C40.5 58.1395 39.3061 59.3334 37.8333 59.3334H11.1667C9.69392 59.3334 8.5 58.1395 8.5 56.6667C8.5 55.1939 9.69392 54 11.1667 54H21.8333V48.5203C9.83347 47.1936 0.5 37.0203 0.5 24.6667C0.5 11.4119 11.2452 0.666687 24.5 0.666687C37.7549 0.666687 48.5 11.4119 48.5 24.6667ZM32.5 24.6667C32.5 29.0851 28.9184 32.6667 24.5 32.6667C20.0816 32.6667 16.5 29.0851 16.5 24.6667C16.5 20.2484 20.0816 16.6667 24.5 16.6667C28.9184 16.6667 32.5 20.2484 32.5 24.6667Z" fill="#9535E1"/>
  </svg>
