<svg width="20" height="22" viewBox="0 0 20 22" fill="none" xmlns="http://www.w3.org/2000/svg">
  <path fill-rule="evenodd" clip-rule="evenodd" d="M7.74225 20.5541L7.08973 19.1082C6.85724 18.5922 6.4646 18.1621 5.9683 17.8799C5.47171 17.5977 4.89723 17.4774 4.32708 17.5364L2.73053 17.7039C2.25532 17.7531 1.77581 17.6656 1.35002 17.4519C0.924229 17.2383 0.570409 16.9076 0.331349 16.5C0.0922291 16.0924 -0.0216909 15.6252 0.00340908 15.1551C0.0285091 14.6849 0.191559 14.2321 0.472769 13.8514L1.41805 12.5718C1.75516 12.115 1.9367 11.5648 1.93659 11C1.9367 10.4352 1.75516 9.885 1.41805 9.4282L0.472769 8.14855C0.191559 7.76793 0.0285091 7.31508 0.00340908 6.84494C-0.0216909 6.3748 0.0922291 5.90759 0.331349 5.5C0.570169 5.09216 0.923949 4.76134 1.3498 4.54765C1.77565 4.33396 2.25528 4.24658 2.73053 4.29611L4.33205 4.46356C4.90219 4.52255 5.47667 4.40233 5.97326 4.12011C6.46771 3.83708 6.85854 3.40709 7.08973 2.89178L7.74225 1.44589C7.93622 1.01549 8.2528 0.64979 8.6535 0.39314C9.0543 0.13649 9.522 -7.69675e-05 10 3.2543e-08C10.478 -7.69675e-05 10.9457 0.13649 11.3465 0.39314C11.7472 0.64979 12.0638 1.01549 12.2578 1.44589L12.9152 2.89178C13.1464 3.40709 13.5372 3.83708 14.0317 4.12011C14.5283 4.40233 15.1028 4.52255 15.6729 4.46356L17.2695 4.29611C17.7447 4.24658 18.2243 4.33396 18.6502 4.54765C19.076 4.76134 19.4298 5.09216 19.6686 5.5C19.9078 5.90759 20.0217 6.3748 19.9966 6.84494C19.9715 7.31508 19.8084 7.76793 19.5272 8.14855L18.5819 9.4282C18.2448 9.885 18.0633 10.4352 18.0634 11C18.0605 11.5663 18.2404 12.1188 18.577 12.5779L19.5223 13.8576C19.8035 14.2382 19.9665 14.691 19.9916 15.1612C20.0167 15.6313 19.9028 16.0985 19.6637 16.5061C19.4249 16.914 19.0711 17.2448 18.6452 17.4585C18.2194 17.6722 17.7398 17.7595 17.2645 17.71L15.668 17.5426C15.0978 17.4836 14.5233 17.6038 14.0267 17.886C13.5333 18.1674 13.1425 18.5952 12.9103 19.1082L12.2578 20.5541C12.0638 20.9845 11.7472 21.3502 11.3465 21.6069C10.9457 21.8635 10.478 22.0001 10 22C9.522 22.0001 9.0543 21.8635 8.6535 21.6069C8.2528 21.3502 7.93622 20.9845 7.74225 20.5541ZM13 11C13 12.6569 11.6569 14 10 14C8.3431 14 7 12.6569 7 11C7 9.3431 8.3431 8 10 8C11.6569 8 13 9.3431 13 11Z" fill="#9535E1"/>
  </svg>
